<svg width="512" height="512" viewBox="0 0 512 512" fill="none" xmlns="http://www.w3.org/2000/svg">
<path fill-rule="evenodd" clip-rule="evenodd" d="M20 83C20 65.3 31.2517 51 45.1786 51H347.321C361.248 51 372.5 65.3 372.5 83C372.5 100.7 361.248 115 347.321 115H45.1786C31.2517 115 20 100.7 20 83ZM115.539 215.971C124.911 206.598 124.911 191.402 115.539 182.029C106.166 172.657 90.9704 172.657 81.5978 182.029L30.6861 232.941C18.1893 245.438 18.1893 265.699 30.6861 278.196L81.5978 329.108C90.9704 338.48 106.166 338.48 115.539 329.108C124.911 319.735 124.911 304.539 115.539 295.167L75.9409 255.569L115.539 215.971ZM187 184C169.327 184 155 198.327 155 216V296C155 313.673 169.327 328 187 328H459C476.673 328 491 313.673 491 296V216C491 198.327 476.673 184 459 184H187ZM203 280V232H443V280H203ZM45.1786 396C31.2517 396 20 410.3 20 428C20 445.7 31.2517 460 45.1786 460H347.321C361.248 460 372.5 445.7 372.5 428C372.5 410.3 361.248 396 347.321 396H45.1786Z" fill="black"/>
</svg>
