<svg width="512" height="512" viewBox="0 0 512 512" fill="none" xmlns="http://www.w3.org/2000/svg">
<path fill-rule="evenodd" clip-rule="evenodd" d="M19.6206 82.9919C19.6206 65.2964 30.9054 51 44.8733 51H347.905C361.872 51 373.157 65.2964 373.157 82.9919C373.157 100.687 361.872 114.984 347.905 114.984H44.8733C30.9054 114.984 19.6206 100.687 19.6206 82.9919ZM114.098 339.875C123.486 330.517 123.486 315.346 114.098 305.988C104.711 296.631 89.4904 296.631 80.1029 305.988L29.0339 356.895C16.5172 369.371 16.5172 389.6 29.0339 402.077L80.1029 452.984C89.4904 462.341 104.711 462.341 114.098 452.984C123.486 443.626 123.486 428.454 114.098 419.097L74.3608 379.486L114.098 339.875ZM185.77 307.929C168.097 307.929 153.77 322.256 153.77 339.929V419.904C153.77 437.578 168.097 451.904 185.77 451.904H458.617C476.29 451.904 490.617 437.577 490.617 419.904V339.929C490.617 322.256 476.29 307.929 458.617 307.929H185.77ZM201.77 403.904V355.929H442.617V403.904H201.77ZM44.8733 174.969C30.9054 174.969 19.6206 189.265 19.6206 206.961C19.6206 224.656 30.9054 238.953 44.8733 238.953H347.905C361.872 238.953 373.157 224.656 373.157 206.961C373.157 189.265 361.872 174.969 347.905 174.969H44.8733Z" fill="black"/>
</svg>
