<svg width="750" height="500" viewBox="0 0 750 500" fill="none" xmlns="http://www.w3.org/2000/svg">
<g clip-path="url(#clip0_221_832)">
<path d="M60.1251 410.782H671.382C671.382 410.782 686.239 368.237 643.791 323.563C601.343 278.889 596.192 172.228 461.34 132.703C326.489 93.1766 213.29 133.273 180.107 199.214C146.924 265.155 22.9831 275.251 60.1251 410.782Z" fill="#F8E5C4"/>
<path d="M671.382 410.781C671.382 410.781 680.93 383.418 662.822 349.54C641.48 361.618 618.152 385.158 579.57 391.484C520.656 401.143 489.448 377.351 433.14 329.156C376.832 280.961 260.693 349.458 234.031 294.888C218.101 262.285 179.355 243.702 150.739 234.023C103.195 274.44 30.5322 302.798 60.1252 410.781H671.382Z" fill="#EDD2A4"/>
<path d="M28.2881 410.781H701.095" stroke="#EDD2A4" stroke-width="1.0612" stroke-miterlimit="10"/>
<path d="M324.819 277.827H201.924V421.09H324.819V277.827Z" fill="#874F2E"/>
<path d="M324.819 277.827H282.117V421.09H324.819V277.827Z" fill="#AD6E47"/>
<path d="M308.108 291.692H298.827C297.298 291.692 296.059 290.453 296.059 288.924V288.804H310.876V288.924C310.876 290.452 309.637 291.692 308.108 291.692Z" stroke="#704226" stroke-width="0.7889" stroke-miterlimit="10"/>
<path d="M324.819 313.643H201.924" stroke="#704226" stroke-width="0.7889" stroke-miterlimit="10"/>
<path d="M308.108 327.507H298.827C297.298 327.507 296.059 326.268 296.059 324.739V324.619H310.876V324.739C310.876 326.268 309.637 327.507 308.108 327.507Z" stroke="#704226" stroke-width="0.7889" stroke-miterlimit="10"/>
<path d="M324.819 349.459H201.924" stroke="#704226" stroke-width="0.7889" stroke-miterlimit="10"/>
<path d="M308.108 363.324H298.827C297.298 363.324 296.059 362.085 296.059 360.556V360.436H310.876V360.556C310.876 362.085 309.637 363.324 308.108 363.324Z" stroke="#704226" stroke-width="0.7889" stroke-miterlimit="10"/>
<path d="M324.819 385.275H201.924" stroke="#704226" stroke-width="0.7889" stroke-miterlimit="10"/>
<path d="M308.108 399.139H298.827C297.298 399.139 296.059 397.9 296.059 396.371V396.251H310.876V396.371C310.876 397.9 309.637 399.139 308.108 399.139Z" stroke="#704226" stroke-width="0.7889" stroke-miterlimit="10"/>
<path d="M465.148 320.784C532.289 320.784 586.718 266.355 586.718 199.214C586.718 132.072 532.289 77.6436 465.148 77.6436C398.007 77.6436 343.578 132.072 343.578 199.214C343.578 266.355 398.007 320.784 465.148 320.784Z" fill="#FFABAB"/>
<path opacity="0.2" d="M633.052 200.021H542.053V240.081H633.052V200.021Z" fill="black"/>
<path d="M630.702 197.29H539.703V237.351H630.702V197.29Z" fill="#3593BF"/>
<path d="M550.757 237.35H539.703V197.29H559.631L550.757 237.35Z" fill="#2D7EA3"/>
<path d="M568.75 225.317C567.284 225.317 565.992 225.015 564.873 224.411C563.755 223.807 562.884 222.887 562.26 221.649C561.636 220.411 561.324 218.852 561.324 216.97C561.324 215 561.653 213.388 562.311 212.136C562.969 210.884 563.878 209.955 565.037 209.351C566.196 208.747 567.512 208.445 568.987 208.445C569.799 208.445 570.584 208.527 571.341 208.69C572.098 208.853 572.719 209.059 573.204 209.306L572.462 211.37C571.967 211.172 571.395 210.994 570.746 210.835C570.097 210.676 569.491 210.597 568.927 210.597C567.798 210.597 566.861 210.84 566.113 211.325C565.366 211.81 564.806 212.523 564.435 213.464C564.064 214.405 563.878 215.563 563.878 216.94C563.878 218.257 564.058 219.38 564.42 220.311C564.781 221.242 565.32 221.952 566.038 222.442C566.756 222.932 567.654 223.177 568.734 223.177C569.595 223.177 570.372 223.086 571.065 222.903C571.758 222.72 572.387 222.505 572.952 222.257V224.455C572.407 224.732 571.801 224.945 571.133 225.094C570.465 225.243 569.671 225.317 568.75 225.317Z" fill="white"/>
<path d="M588.85 220.564C588.85 221.604 588.59 222.478 588.07 223.186C587.55 223.894 586.808 224.426 585.842 224.782C584.877 225.138 583.726 225.317 582.389 225.317C581.25 225.317 580.266 225.228 579.434 225.05C578.602 224.872 577.874 224.619 577.25 224.293V222.021C577.914 222.348 578.706 222.645 579.627 222.912C580.548 223.179 581.488 223.313 582.448 223.313C583.854 223.313 584.874 223.085 585.508 222.63C586.142 222.175 586.458 221.556 586.458 220.774C586.458 220.329 586.332 219.935 586.08 219.593C585.827 219.251 585.404 218.92 584.809 218.598C584.215 218.276 583.393 217.922 582.344 217.536C581.304 217.14 580.406 216.746 579.649 216.355C578.891 215.964 578.307 215.486 577.896 214.922C577.485 214.358 577.28 213.625 577.28 212.724C577.28 211.348 577.837 210.291 578.951 209.554C580.064 208.816 581.527 208.448 583.34 208.448C584.319 208.448 585.238 208.544 586.095 208.738C586.951 208.931 587.751 209.191 588.493 209.518L587.661 211.493C586.988 211.206 586.27 210.963 585.508 210.765C584.745 210.567 583.968 210.468 583.176 210.468C582.037 210.468 581.164 210.656 580.555 211.032C579.947 211.408 579.642 211.923 579.642 212.576C579.642 213.081 579.783 213.497 580.065 213.824C580.347 214.151 580.8 214.458 581.424 214.745C582.048 215.032 582.869 215.369 583.889 215.755C584.91 216.131 585.79 216.52 586.533 216.921C587.276 217.322 587.847 217.807 588.249 218.377C588.651 218.947 588.85 219.673 588.85 220.564Z" fill="white"/>
<path d="M604.867 220.564C604.867 221.604 604.607 222.478 604.087 223.186C603.567 223.894 602.825 224.426 601.859 224.782C600.894 225.138 599.743 225.317 598.406 225.317C597.267 225.317 596.283 225.228 595.451 225.05C594.619 224.872 593.891 224.619 593.267 224.293V222.021C593.931 222.348 594.723 222.645 595.644 222.912C596.565 223.179 597.505 223.313 598.465 223.313C599.871 223.313 600.891 223.085 601.525 222.63C602.159 222.175 602.475 221.556 602.475 220.774C602.475 220.329 602.349 219.935 602.097 219.593C601.844 219.251 601.421 218.92 600.826 218.598C600.232 218.276 599.41 217.922 598.361 217.536C597.321 217.14 596.423 216.746 595.666 216.355C594.908 215.964 594.324 215.486 593.913 214.922C593.502 214.358 593.297 213.625 593.297 212.724C593.297 211.348 593.854 210.291 594.968 209.554C596.081 208.816 597.544 208.448 599.357 208.448C600.336 208.448 601.255 208.544 602.112 208.738C602.968 208.931 603.768 209.191 604.51 209.518L603.678 211.493C603.005 211.206 602.287 210.963 601.525 210.765C600.762 210.567 599.985 210.468 599.193 210.468C598.054 210.468 597.181 210.656 596.572 211.032C595.964 211.408 595.659 211.923 595.659 212.576C595.659 213.081 595.8 213.497 596.082 213.824C596.364 214.151 596.817 214.458 597.441 214.745C598.065 215.032 598.886 215.369 599.906 215.755C600.927 216.131 601.807 216.52 602.55 216.921C603.293 217.322 603.864 217.807 604.266 218.377C604.668 218.947 604.867 219.673 604.867 220.564Z" fill="white"/>
<path d="M481.023 419.902H476.109L474.999 292.95H482.132L481.023 419.902Z" fill="#AD6E47"/>
<path d="M489.448 377.353H467.684L471.533 367.896H485.599L489.448 377.353Z" fill="#874F2E"/>
<path d="M489.448 377.353H467.684L471.876 385.112C472.419 386.117 473.47 386.744 474.612 386.744H482.52C483.663 386.744 484.713 386.118 485.256 385.112L489.448 377.353Z" fill="#704226"/>
<path d="M514.587 419.903H509.405L483.074 367.896H486.82C489.382 367.896 491.706 369.395 492.763 371.728L514.587 419.903Z" fill="#AD6E47"/>
<path d="M442.545 419.903H447.727L474.058 367.896H470.312C467.75 367.896 465.426 369.395 464.369 371.728L442.545 419.903Z" fill="#AD6E47"/>
<path d="M424.958 296.222C424.958 296.222 462.676 296.222 491.328 296.222C519.981 296.222 535.191 276.766 541.205 252.005C547.219 227.244 550.049 212.387 553.232 197.176C556.416 181.965 550.756 159.806 531.654 159.806C512.552 159.806 509.722 159.806 495.219 159.806C480.716 159.806 472.898 155.277 466.195 178.879C459.492 202.481 453.528 233.257 449.435 248.821C445.342 264.385 414.302 262.175 403.248 272.256C394.649 280.099 394.315 296.222 424.958 296.222Z" fill="white"/>
<path d="M523.873 220.257C520.424 204.073 515.118 189.846 514.322 184.225C513.615 179.231 517.927 166.949 514.246 159.806C508.177 159.806 503.686 159.806 495.22 159.806C480.717 159.806 472.899 155.277 466.196 178.879C459.493 202.481 453.529 233.257 449.436 248.821C445.343 264.385 414.303 262.175 403.249 272.256C394.649 280.099 394.316 296.222 424.959 296.222C424.959 296.222 439.954 296.222 458.215 296.222C454.015 290.171 449.983 281.277 462.589 281.277C481.691 281.277 491.507 281.277 491.507 281.277C507.16 281.277 514.323 277.032 520.16 267.216C525.996 257.399 527.322 236.44 523.873 220.257Z" fill="#E3E3E3"/>
<path d="M360.134 372.275C360.134 372.275 354.829 403.717 352.91 410.245C352.07 413.101 342.494 418.981 339.469 420.157C336.445 421.333 330.733 421.501 330.733 423.517C330.733 425.533 345.182 425.869 352.238 425.365C359.294 424.861 366.183 425.701 366.351 423.349C366.519 420.997 363.831 419.317 364.503 414.277C365.175 409.237 378.112 372.275 378.112 372.275H360.134Z" fill="#F86C6C"/>
<path d="M431.805 372.275C431.805 372.275 437.624 402.519 437.096 410.245C436.893 413.215 426.68 418.981 423.655 420.157C420.631 421.333 414.919 421.501 414.919 423.517C414.919 425.533 429.368 425.869 436.424 425.365C443.48 424.861 450.369 425.701 450.537 423.349C450.705 420.997 449.094 419.345 448.689 414.277C448.237 408.622 449.782 372.275 449.782 372.275H431.805Z" fill="#F86C6C"/>
<path d="M433.704 382.747L449.109 389.893C449.428 380.596 449.782 372.276 449.782 372.276H431.805C431.805 372.276 432.672 376.778 433.704 382.747Z" fill="#A63B3B"/>
<path d="M358.425 382.172L372.86 387.537C375.674 379.242 378.112 372.275 378.112 372.275H360.135C360.135 372.275 359.422 376.503 358.425 382.172Z" fill="#A63B3B"/>
<path d="M397.236 376.52H355.495C355.495 376.52 371.767 282.78 376.366 267.569C380.965 252.358 403.594 240.71 465.149 240.697L457.34 269.691L413.862 286.317C413.862 286.317 407.706 296.588 406.186 308.609C404.665 320.63 405.019 325.936 401.128 331.949C397.237 337.962 400.421 342.207 399.359 350.697C398.297 359.187 397.236 376.52 397.236 376.52Z" fill="#38856D"/>
<path d="M378.661 262.561C389.328 260.426 393.17 271.619 393.875 289.501C394.5 305.339 401.736 316.59 404.813 320.689C405.24 317.47 405.55 313.63 406.185 308.609C407.706 296.588 413.862 286.317 413.862 286.317L457.34 269.691L465.149 240.697C410.553 240.708 386.592 249.876 378.661 262.561Z" fill="#286150"/>
<path d="M360.447 367.5H392.283" stroke="#286150" stroke-width="1.0612" stroke-miterlimit="10" stroke-linecap="round" stroke-linejoin="round"/>
<path d="M412.273 272.256C412.273 272.256 401.305 277.562 398.652 286.052C395.999 294.542 395.203 317.092 392.285 324.521C389.367 331.949 391.578 335.664 391.135 342.562C390.693 349.46 387.509 367.5 387.509 367.5" stroke="#286150" stroke-width="1.0612" stroke-miterlimit="10" stroke-linecap="round" stroke-linejoin="round"/>
<path d="M415.807 167.992L401.834 220.345L343.821 234.318H409.407C415.677 234.318 421.262 230.356 423.333 224.438L438.446 181.258C438.446 181.258 426.596 165.162 415.807 167.992Z" fill="#B85050"/>
<path d="M438.447 181.257C438.447 181.257 426.597 165.162 415.808 167.992L411.473 184.232C412.556 185.364 414.053 186.317 416.161 186.792C422.791 188.284 425.024 202.596 429.147 207.826L438.447 181.257Z" fill="#A63B3B"/>
<path d="M461.339 132.703C461.339 132.703 479.037 136.422 488.588 140.932C498.139 145.442 501.057 156.319 503.578 173.299L484.963 174.36C484.963 174.36 493.63 208.495 497.874 220.699C502.119 232.903 511.139 239.093 504.949 240.331C498.759 241.569 447.998 240.331 439.685 240.331C431.372 240.331 441.984 228.304 443.046 221.229C444.107 214.154 442.515 201.773 438.447 196.644C434.379 191.515 429.073 193.283 429.957 177.365L412.272 170.113C412.272 170.113 418.46 152.249 430.134 143.76C441.807 135.272 449.921 133.317 461.339 132.703Z" fill="#638296"/>
<path d="M497.874 220.699C493.629 208.495 484.963 174.36 484.963 174.36L489.87 174.08L468.692 175.224L470.572 164.551C470.572 164.551 465.863 175.952 464.801 187.626C463.852 198.068 450.257 205.504 443.27 213.444C443.45 216.302 443.377 219.025 443.046 221.231C441.985 228.306 431.373 240.333 439.686 240.333C447.999 240.333 498.76 241.571 504.95 240.333C511.139 239.093 502.119 232.903 497.874 220.699Z" fill="#313F4A"/>
<path d="M499.459 173.533L484.89 220.787C482.41 228.831 474.976 234.318 466.559 234.318H392.284C392.284 234.318 394.23 227.951 399.536 227.42C404.842 226.889 406.08 227.951 409.794 228.127C413.508 228.304 459.663 217.352 459.663 217.352L472.45 175.223L499.459 173.533Z" fill="#F86C6C"/>
<path d="M423.236 174.61L429.957 177.366C430.664 171.715 433.149 165.472 433.141 160.917C433.135 157.728 430.842 161.841 427.835 167.658C426.354 170.522 424.618 172.915 423.236 174.61Z" fill="#313F4A"/>
<path d="M472.449 175.223H468.69C468.69 175.223 469.31 165.592 472.449 159.806" stroke="#313F4A" stroke-width="1.0612" stroke-miterlimit="10" stroke-linecap="round" stroke-linejoin="round"/>
<path d="M502.119 235.379C502.119 235.379 522.017 281.276 491.507 281.276C460.997 281.276 447.467 281.276 447.467 281.276C447.467 281.276 448.98 288.411 447.3 294.362C446.566 296.962 446.473 299.698 447.241 302.288C449.351 309.412 453.295 323.107 454.63 330.356C456.487 340.438 458.329 342.56 459.663 351.58C460.997 360.6 466.834 367.233 464.977 376.518H419.08C419.08 376.518 409.529 314.172 406.611 288.172C403.693 262.172 415.897 243.336 440.57 243.336C440.57 243.336 469.753 239.356 473.733 237.499L502.119 235.379Z" fill="#38856D"/>
<path d="M421.904 367.5H460.731" stroke="#286150" stroke-width="1.0612" stroke-miterlimit="10" stroke-linecap="round" stroke-linejoin="round"/>
<path d="M448.529 367.5C448.529 367.5 448.529 354.5 446.937 345.745C445.345 336.99 443.753 326.939 442.692 320.689C441.631 314.439 440.835 303.827 440.039 296.133C439.243 288.439 440.742 283.133 441.319 274.113C451.712 271.991 480.63 274.644 489.916 270.929C499.202 267.215 506.38 264.827 508.494 256.868" stroke="#286150" stroke-width="1.0612" stroke-miterlimit="10" stroke-linecap="round" stroke-linejoin="round"/>
<path d="M470.859 180.462C475.595 179.997 487.169 179.494 496.162 184.225L499.459 173.533L472.45 175.223L470.859 180.462Z" fill="#A63B3B"/>
<path d="M349.205 414.23C345.918 416.784 341.383 419.412 339.469 420.157C336.445 421.333 330.733 421.501 330.733 423.517C330.733 425.533 345.182 425.869 352.238 425.365C359.294 424.861 366.183 425.701 366.351 423.349C366.489 421.42 364.709 419.94 364.433 416.692C362.609 416.78 360.388 416.85 357.698 416.881C352.667 416.939 350.3 415.64 349.205 414.23Z" fill="#53786B"/>
<path d="M433.391 414.23C430.104 416.784 425.569 419.412 423.655 420.157C420.631 421.333 414.919 421.501 414.919 423.517C414.919 425.533 429.368 425.869 436.424 425.365C443.48 424.861 450.369 425.701 450.536 423.349C450.674 421.42 448.894 419.94 448.618 416.692C446.795 416.78 444.573 416.85 441.883 416.881C436.853 416.939 434.486 415.64 433.391 414.23Z" fill="#53786B"/>
<path d="M435.857 122.031C437.053 124.749 437.186 126.673 438.977 128.463C440.076 129.562 441.925 130.386 443.189 130.859C444.024 131.171 444.953 131.109 445.748 130.705L447.244 129.943L449.438 135.89L446.118 137.313C443.079 138.615 440.729 141.131 439.652 144.257C437.27 151.175 436.873 162.753 448.175 162.753C461.858 162.753 469.864 148.841 473.802 140.824C474.627 139.144 473.618 137.138 471.774 136.817C468.57 136.259 464.147 134.939 462.723 131.845C460.402 126.804 458.611 121.565 458.611 121.565C458.611 121.565 459.208 111.086 458.545 107.902C457.882 104.718 453.703 96.8255 445.413 99.0135C437.122 101.203 430.53 107.464 431.75 115.595C431.946 116.923 435.857 122.031 435.857 122.031Z" fill="#F86C6C"/>
<path d="M449.438 135.889L450.915 140.003" stroke="#A63B3B" stroke-width="0.7959" stroke-miterlimit="10" stroke-linecap="round"/>
<path d="M448.261 132.703C451.267 132.699 452.507 126.34 453.462 124.792C454.417 123.244 453.568 122.316 452.861 123.466C452.154 124.616 450.12 128.418 447.243 129.943L448.261 132.703Z" fill="#A63B3B"/>
<path d="M446.67 101.932C446.67 101.932 447.218 106.497 450.782 110.952C451.843 112.278 451.711 117.85 453.435 118.513C455.159 119.176 453.17 115.727 454.231 113.34C455.292 110.952 457.68 112.014 457.68 114.666C457.68 117.318 456.354 120.105 456.354 120.105L458.609 121.564C458.609 121.564 459.67 115.727 461.129 108.962C462.588 102.197 456.354 95.0342 445.344 96.3602C445.344 96.3602 431.283 89.7282 425.579 103.391C419.875 117.054 430.487 118.646 430.487 118.646L435.992 122.36L434.243 118.084C433.552 116.395 434.168 114.463 435.707 113.483C439.117 111.312 444.772 107.084 446.67 101.932Z" fill="#7A2C2C"/>
<path d="M464.74 92.0577C465.484 87.1351 462.096 82.5417 457.174 81.798C452.251 81.0542 447.658 84.4418 446.914 89.3643C446.17 94.2868 449.558 98.8803 454.48 99.624C459.403 100.368 463.996 96.9802 464.74 92.0577Z" fill="#7A2C2C"/>
<path d="M529.71 234.318H423.236V244.4H529.71V234.318Z" stroke="#16367C" stroke-width="0.756" stroke-miterlimit="10"/>
<path d="M446.445 231.079H293.237V234.318H446.445V231.079Z" fill="#E3E3E3"/>
<path d="M388.096 234.318H289.902L274.489 164.11H372.683L388.096 234.318Z" fill="white"/>
<path d="M388.096 234.318H384.494L369.081 164.11H372.683L388.096 234.318Z" fill="#E3E3E3"/>
<path d="M337.879 199.214C338.995 204.3 335.778 208.422 330.692 208.422C325.606 208.422 320.579 204.299 319.462 199.214C318.346 194.128 321.563 190.006 326.649 190.006C331.735 190.006 336.762 194.128 337.879 199.214Z" fill="#F59D00"/>
<path d="M236.622 203.991C236.622 203.991 230.325 199.575 233.842 193.686C237.358 187.798 251.712 189.822 252.447 185.221C253.183 180.621 237.082 180.989 225.029 181.173C212.976 181.357 208.192 180.184 208.192 177.148C208.192 173.583 212.76 173.854 212.609 169.424C212.425 164.037 184.73 166.912 184.73 166.912C184.73 166.912 190.417 164.952 201.107 164.175C209.02 163.6 222.453 162.68 223.189 168.936C223.925 175.193 229.078 174.456 239.474 175.193C249.871 175.929 259.164 178.965 258.427 188.626C257.691 198.287 238.679 191.785 236.437 196.631C234.195 201.477 240.945 203.992 240.945 203.992H236.622V203.991Z" fill="white"/>
<path d="M221.6 201.951L223.934 230.838C224.093 232.803 225.734 234.318 227.706 234.318H234.031H240.356C242.328 234.318 243.969 232.804 244.128 230.838L246.462 201.951H221.6Z" fill="#F59D00"/>
<path opacity="0.2" d="M502.069 80.6953V115.349L481.382 128.772H502.069V138.941H585.204V80.6953H502.069Z" fill="black"/>
<path d="M499.459 77.6436V112.298L478.772 125.721H499.459V135.889H582.594V77.6436H499.459Z" fill="#F86C6C"/>
<path d="M530.134 114.6L513.331 107.16V105.5L530.134 97.1855V99.7706L516.476 106.216L530.134 112.032V114.6Z" fill="white"/>
<path d="M546.509 93.3086L537.007 118.845H534.143L543.662 93.3086H546.509Z" fill="white"/>
<path d="M550.479 112.033L564.156 106.252L550.479 99.7715V97.1865L567.282 105.501V107.161L550.479 114.601V112.033Z" fill="white"/>
<path opacity="0.2" d="M646.232 235.335H570.004V275.396H646.232V235.335Z" fill="black"/>
<path d="M643.314 232.152H567.086V272.213H643.314V232.152Z" fill="#F86C6C"/>
<path d="M590.296 256.919H588.902V251.269H582.603V256.919H581.209V244.929H582.603V250.038H588.902V244.929H590.296V256.919Z" fill="white"/>
<path d="M598.114 256.919H596.712V246.159H592.94V244.929H601.871V246.159H598.115L598.114 256.919Z" fill="white"/>
<path d="M609.796 256.919L605.77 246.307H605.705C605.726 246.531 605.746 246.805 605.763 247.127C605.779 247.45 605.792 247.801 605.804 248.181C605.815 248.561 605.82 248.948 605.82 249.342V256.919H604.525V244.929H606.591L610.388 254.901H610.446L614.3 244.929H616.35V256.919H614.972V249.243C614.972 248.888 614.978 248.531 614.989 248.173C615 247.815 615.013 247.476 615.03 247.156C615.047 246.836 615.063 246.559 615.079 246.323H615.014L610.939 256.919H609.796Z" fill="white"/>
<path d="M620.47 256.919V244.929H621.864V255.673H627.186V256.919H620.47Z" fill="white"/>
<path d="M615.4 336.75C615.731 334.721 615.91 332.641 615.91 330.518C615.91 328.395 615.731 326.315 615.4 324.286H604.711C604.003 321.178 602.78 318.267 601.132 315.648L608.687 308.093C606.246 304.699 603.268 301.72 599.873 299.279L592.318 306.834C589.699 305.186 586.788 303.963 583.68 303.255V292.566C581.651 292.235 579.571 292.056 577.448 292.056C575.325 292.056 573.245 292.235 571.216 292.566V303.255C568.108 303.963 565.197 305.186 562.578 306.834L555.023 299.279C551.629 301.72 548.65 304.698 546.209 308.093L553.764 315.648C552.116 318.267 550.893 321.178 550.185 324.286H539.496C539.165 326.315 538.986 328.395 538.986 330.518C538.986 332.641 539.165 334.721 539.496 336.75H550.185C550.893 339.858 552.116 342.769 553.764 345.388L546.209 352.943C548.65 356.337 551.628 359.316 555.023 361.757L562.578 354.202C565.197 355.85 568.107 357.073 571.216 357.781V368.47C573.245 368.801 575.325 368.98 577.448 368.98C579.571 368.98 581.651 368.801 583.68 368.47V357.78C586.788 357.072 589.699 355.849 592.318 354.201L599.873 361.756C603.267 359.315 606.246 356.337 608.687 352.942L601.132 345.387C602.78 342.768 604.003 339.857 604.711 336.749H615.4V336.75ZM577.448 344.283C569.845 344.283 563.682 338.12 563.682 330.517C563.682 322.914 569.845 316.751 577.448 316.751C585.051 316.751 591.214 322.914 591.214 330.517C591.213 338.12 585.05 344.283 577.448 344.283Z" fill="#4D4D4D"/>
<path d="M654.332 364.671C654.433 363.38 654.436 362.066 654.324 360.733C654.212 359.4 653.99 358.105 653.676 356.849L646.969 357.412C646.361 355.499 645.44 353.737 644.269 352.18L648.612 347.042C646.902 345.041 644.876 343.328 642.618 341.975L638.275 347.113C636.545 346.217 634.654 345.602 632.666 345.322L632.103 338.615C630.812 338.514 629.497 338.511 628.165 338.623C626.833 338.735 625.537 338.957 624.281 339.271L624.844 345.978C622.931 346.586 621.169 347.507 619.612 348.678L614.474 344.335C612.473 346.045 610.76 348.071 609.407 350.329L614.545 354.672C613.649 356.402 613.034 358.293 612.754 360.281L606.047 360.844C605.946 362.135 605.943 363.449 606.055 364.782C606.167 366.114 606.389 367.41 606.703 368.666L613.41 368.103C614.018 370.016 614.939 371.778 616.11 373.335L611.767 378.473C613.477 380.475 615.503 382.187 617.761 383.54L622.104 378.402C623.834 379.298 625.725 379.913 627.713 380.193L628.276 386.9C629.567 387.001 630.881 387.004 632.214 386.892C633.546 386.78 634.842 386.558 636.098 386.244L635.535 379.537C637.448 378.929 639.21 378.008 640.767 376.837L645.905 381.18C647.906 379.47 649.619 377.444 650.972 375.186L645.834 370.843C646.73 369.113 647.345 367.222 647.625 365.234L654.332 364.671ZM630.914 371.395C626.144 371.795 621.952 368.252 621.552 363.482C621.152 358.711 624.695 354.52 629.465 354.12C634.236 353.72 638.427 357.263 638.827 362.033C639.227 366.803 635.684 370.995 630.914 371.395Z" fill="#7D7D7D"/>
<g opacity="0.2">
<path d="M394.845 50.5273H276.526C271.149 50.5273 266.79 54.8863 266.79 60.2633V129.535C266.79 134.912 271.149 139.271 276.526 139.271H324.788C326.444 139.271 327.957 140.205 328.701 141.684L334.669 153.564C335.089 154.4 336.282 154.4 336.702 153.564L342.67 141.684C343.413 140.205 344.927 139.271 346.583 139.271H394.845C400.222 139.271 404.581 134.912 404.581 129.535V60.2633C404.581 54.8863 400.222 50.5273 394.845 50.5273Z" fill="black"/>
</g>
<path d="M392.717 46.541H274.399C269.022 46.541 264.663 50.9 264.663 56.277V125.549C264.663 130.926 269.022 135.285 274.399 135.285H322.661C324.316 135.285 325.83 136.219 326.574 137.698L332.542 149.578C332.962 150.414 334.155 150.414 334.575 149.578L340.543 137.698C341.286 136.219 342.8 135.285 344.456 135.285H392.718C398.095 135.285 402.454 130.926 402.454 125.549V56.277C402.453 50.9 398.094 46.541 392.717 46.541Z" fill="#313F4A"/>
<path d="M315.346 64.406H283.454C282.41 64.406 281.564 63.56 281.564 62.516C281.564 61.472 282.41 60.626 283.454 60.626H315.346C316.39 60.626 317.236 61.472 317.236 62.516C317.236 63.56 316.389 64.406 315.346 64.406Z" fill="#F59D00"/>
<path d="M328.832 73.0066H283.454C282.41 73.0066 281.564 72.1606 281.564 71.1166C281.564 70.0726 282.41 69.2266 283.454 69.2266H328.832C329.876 69.2266 330.722 70.0726 330.722 71.1166C330.722 72.1606 329.876 73.0066 328.832 73.0066Z" fill="white"/>
<path d="M382.038 64.406H323.66C322.616 64.406 321.77 63.56 321.77 62.516C321.77 61.472 322.616 60.626 323.66 60.626H382.038C383.082 60.626 383.928 61.472 383.928 62.516C383.928 63.56 383.082 64.406 382.038 64.406Z" fill="#3593BF"/>
<path d="M382.038 73.0066H336.66C335.616 73.0066 334.77 72.1606 334.77 71.1166C334.77 70.0726 335.616 69.2266 336.66 69.2266H382.038C383.082 69.2266 383.928 70.0726 383.928 71.1166C383.928 72.1606 383.082 73.0066 382.038 73.0066Z" fill="white"/>
<path d="M351.964 79.5971H282.448C281.959 79.5971 281.564 79.2011 281.564 78.7131C281.564 78.2251 281.96 77.8291 282.448 77.8291H351.964C352.452 77.8291 352.848 78.2251 352.848 78.7131C352.848 79.2011 352.452 79.5971 351.964 79.5971Z" fill="#F86C6C"/>
<path d="M337.631 95.6472H283.454C282.41 95.6472 281.564 94.8012 281.564 93.7572C281.564 92.7132 282.41 91.8672 283.454 91.8672H337.631C338.675 91.8672 339.521 92.7132 339.521 93.7572C339.521 94.8012 338.675 95.6472 337.631 95.6472Z" fill="#F59D00"/>
<path d="M315.346 104.248H283.454C282.41 104.248 281.564 103.402 281.564 102.358C281.564 101.314 282.41 100.468 283.454 100.468H315.346C316.39 100.468 317.236 101.314 317.236 102.358C317.236 103.402 316.389 104.248 315.346 104.248Z" fill="#F59D00"/>
<path d="M328.832 112.849H283.454C282.41 112.849 281.564 112.003 281.564 110.959C281.564 109.915 282.41 109.069 283.454 109.069H328.832C329.876 109.069 330.722 109.915 330.722 110.959C330.722 112.003 329.876 112.849 328.832 112.849Z" fill="white"/>
<path d="M382.038 104.248H323.66C322.616 104.248 321.77 103.402 321.77 102.358C321.77 101.314 322.616 100.468 323.66 100.468H382.038C383.082 100.468 383.928 101.314 383.928 102.358C383.928 103.402 383.082 104.248 382.038 104.248Z" fill="#3593BF"/>
<path d="M382.038 112.849H336.66C335.616 112.849 334.77 112.003 334.77 110.959C334.77 109.915 335.616 109.069 336.66 109.069H382.038C383.082 109.069 383.928 109.915 383.928 110.959C383.928 112.003 383.082 112.849 382.038 112.849Z" fill="white"/>
<path d="M351.964 119.439H282.448C281.959 119.439 281.564 119.043 281.564 118.555C281.564 118.067 281.96 117.671 282.448 117.671H351.964C352.452 117.671 352.848 118.067 352.848 118.555C352.848 119.043 352.452 119.439 351.964 119.439Z" fill="#F86C6C"/>
<path d="M529.71 234.318H204.449V244.4H529.71V234.318Z" fill="#657C8F"/>
<path d="M444.244 244.399H436.527V437.008H444.244V244.399Z" fill="#657C8F"/>
<path d="M537.428 437.009H529.711L504.636 244.399H512.353L537.428 437.009Z" fill="#657C8F"/>
<path d="M444.245 259.844V244.399H436.527V258.816L444.245 259.844Z" fill="#313F4A"/>
<path d="M512.353 244.399H504.636L507.748 268.303L515.602 269.349L512.353 244.399Z" fill="#313F4A"/>
<path d="M225.458 244.399H217.741V437.008H225.458V244.399Z" fill="#657C8F"/>
<path d="M318.642 437.009H310.925L285.85 244.399H293.567L318.642 437.009Z" fill="#657C8F"/>
<path d="M225.458 259.844V244.399H217.741V258.816L225.458 259.844Z" fill="#313F4A"/>
<path d="M293.567 244.399H285.85L288.961 268.303L296.815 269.349L293.567 244.399Z" fill="#313F4A"/>
<path d="M209.226 437.01H234.164" stroke="#657C8F" stroke-width="1.0612" stroke-miterlimit="10"/>
<path d="M302.245 437.01H327.183" stroke="#657C8F" stroke-width="1.0612" stroke-miterlimit="10"/>
<path d="M427.267 437.01H452.206" stroke="#657C8F" stroke-width="1.0612" stroke-miterlimit="10"/>
<path d="M520.287 437.01H545.226" stroke="#657C8F" stroke-width="1.0612" stroke-miterlimit="10"/>
<path d="M116.776 344.186C116.776 344.186 115.91 322.575 103.316 311.078C90.7219 299.582 76.0419 296.575 69.6749 306.479C63.3079 316.384 72.8589 326.111 82.2329 334.955C91.6069 343.799 113.47 344.043 116.776 344.186Z" fill="#999C48"/>
<path d="M117.99 306.572C117.99 306.572 94.7908 291.8 86.1238 273.405C77.4568 255.011 90.1918 241.392 97.4438 239.358C104.696 237.324 120.26 239.561 125.035 259.844C129.811 280.127 117.99 306.572 117.99 306.572Z" fill="#53786B"/>
<path d="M153.653 283.282C153.653 283.282 147.024 270.283 144.105 252.508C141.187 234.733 151.003 209.529 174.349 212.713C197.696 215.897 190.969 244.878 179.92 257.814C172.291 266.748 153.653 283.282 153.653 283.282Z" fill="#999C48"/>
<path d="M171.513 214.987C171.513 214.987 143.604 306.251 138.615 373.461" stroke="#313F4A" stroke-width="1.0612" stroke-miterlimit="10"/>
<path d="M129.839 327.507C129.839 327.507 127.666 313.169 134.211 297.782C140.755 282.394 153.49 280.98 159.68 283.986C165.87 286.993 164.632 301.142 157.911 311.224C151.19 321.306 138.823 325.48 129.839 327.507Z" fill="#6D9C8B"/>
<path d="M129.492 372.275C129.492 372.275 120.295 299.052 103.316 255.188" stroke="#313F4A" stroke-width="1.0612" stroke-miterlimit="10"/>
<path d="M84.2148 318.153C84.2148 318.153 101.885 337.039 126.124 349.459" stroke="#313F4A" stroke-width="1.0612" stroke-miterlimit="10"/>
<path d="M152.486 294.099C152.486 294.099 136.483 322.575 123.437 333.806" stroke="#313F4A" stroke-width="1.0612" stroke-miterlimit="10"/>
<path d="M153.378 341.3C153.378 341.3 164.038 287.086 187.712 304.465C208.14 319.462 174.492 344.567 153.378 341.3Z" fill="#F86C6C"/>
<path d="M180.107 313.271C180.107 313.271 165.427 337.767 141.051 348.147" stroke="#313F4A" stroke-width="1.0612" stroke-miterlimit="10"/>
<path d="M139.362 361.879H112.39C112.671 384.746 116.58 407.614 118.345 416.839C118.818 419.309 120.981 421.091 123.495 421.091H139.362H155.229C157.744 421.091 159.907 419.309 160.379 416.839C162.144 407.614 166.053 384.747 166.334 361.879H139.362Z" fill="#313F4A"/>
<path d="M112.389 361.879C112.468 368.335 112.837 374.79 113.365 380.939C121.958 380.119 130.522 378.763 134.409 376.52C140.668 372.909 156.604 370.037 166.152 368.569C166.243 366.347 166.306 364.113 166.334 361.879H139.362H112.389Z" fill="#27323B"/>
<path d="M114.6 421.091H180.107" stroke="#313F4A" stroke-width="1.0612" stroke-miterlimit="10"/>
<path d="M385.104 465.465C384.672 465.908 384.301 466.396 383.996 466.918L383.531 466.677C383.464 466.379 383.182 466.174 382.872 466.211C382.541 466.25 382.304 466.55 382.343 466.881C382.382 467.212 382.682 467.449 383.013 467.41C383.078 467.402 383.14 467.384 383.196 467.358L383.648 467.592C383.397 468.146 383.215 468.731 383.109 469.336L383.856 469.468C384.086 468.162 384.706 466.961 385.648 465.995L385.104 465.465Z" fill="#A5B7C6"/>
<path d="M390.593 463.163C390.422 463.163 390.252 463.169 390.083 463.18L390.009 462.554C390.197 462.405 390.305 462.165 390.275 461.909C390.229 461.516 389.873 461.235 389.48 461.281C389.087 461.327 388.806 461.683 388.852 462.076C388.882 462.33 389.041 462.537 389.257 462.64L389.33 463.264C388.616 463.38 387.927 463.596 387.27 463.91L387.597 464.594C388.531 464.147 389.539 463.921 390.592 463.921C391.088 463.921 391.585 463.974 392.067 464.079L392.228 463.338C391.693 463.222 391.143 463.163 390.593 463.163Z" fill="#A5B7C6"/>
<path d="M397.194 465.712C397.525 465.672 397.76 465.371 397.72 465.04C397.68 464.709 397.379 464.474 397.048 464.514C396.739 464.552 396.513 464.818 396.518 465.123L396.102 465.486C395.684 465.056 395.212 464.673 394.694 464.347L394.29 464.988C395.424 465.703 396.311 466.714 396.853 467.913L397.544 467.6C397.293 467.046 396.976 466.528 396.602 466.055L397.004 465.704C397.065 465.717 397.129 465.72 397.194 465.712Z" fill="#A5B7C6"/>
<path d="M390.044 473.373C389.658 473.396 389.269 473.408 388.887 473.408C388.007 473.408 387.154 473.347 386.409 473.229C386.019 473.167 385.563 473.074 385.139 472.937C386.185 474.798 388.208 476.062 390.527 476.062C393.382 476.062 395.789 474.146 396.477 471.558C395.795 472.007 394.972 472.383 394.018 472.681C392.839 473.048 391.464 473.287 390.044 473.373Z" fill="#A5B7C6"/>
<path d="M390.592 464.681C387.24 464.681 384.512 467.347 384.512 470.624C384.512 471.05 384.558 471.473 384.649 471.885C385.322 472.368 387.355 472.775 389.997 472.616C392.876 472.443 395.294 471.659 396.669 470.457C396.664 470.262 396.648 470.067 396.624 469.875C396.244 466.914 393.65 464.681 390.592 464.681ZM388.432 471.195C387.412 471.195 386.582 470.365 386.582 469.345C386.582 468.325 387.412 467.495 388.432 467.495C389.452 467.495 390.282 468.325 390.282 469.345C390.282 470.366 389.452 471.195 388.432 471.195ZM393.17 470.287C392.42 470.287 391.81 469.677 391.81 468.927C391.81 468.177 392.42 467.566 393.17 467.566C393.92 467.566 394.531 468.176 394.531 468.927C394.531 469.678 393.92 470.287 393.17 470.287Z" fill="#A5B7C6"/>
<path d="M406.595 466.548C406.3 466.432 405.79 466.239 405.213 466.311C404.662 466.38 404.369 466.652 404.369 467.318V468.184H406.597V469.901H404.369V475.356H402.437V469.901H401.097V468.184H402.437V467.296C402.437 465.616 403.333 464.513 405.005 464.513C405.648 464.513 406.162 464.635 406.595 464.821V466.548Z" fill="#A5B7C6"/>
<path d="M411.298 469.879C411.121 469.849 410.94 469.833 410.772 469.833C409.876 469.833 409.262 470.381 409.262 471.447V475.355H407.33V468.183H409.203V468.968C409.654 468.295 410.343 467.991 411.224 467.991C411.638 467.991 412.072 468.119 412.318 468.328L411.298 469.879Z" fill="#A5B7C6"/>
<path d="M418.966 471.757C418.966 471.979 418.951 472.246 418.929 472.408H413.844C414.051 473.444 414.777 473.896 415.687 473.896C416.309 473.896 416.982 473.644 417.5 473.208L418.632 474.451C417.818 475.199 416.782 475.539 415.575 475.539C413.377 475.539 411.852 474.044 411.852 471.786C411.852 469.528 413.332 467.989 415.479 467.989C417.545 467.99 418.959 469.522 418.966 471.757ZM413.852 471.091H417.027C416.85 470.173 416.294 469.655 415.465 469.655C414.555 469.655 414.022 470.203 413.852 471.091Z" fill="#A5B7C6"/>
<path d="M426.618 471.757C426.618 471.979 426.603 472.246 426.581 472.408H421.496C421.703 473.444 422.429 473.896 423.339 473.896C423.961 473.896 424.634 473.644 425.152 473.208L426.284 474.451C425.47 475.199 424.434 475.539 423.227 475.539C421.029 475.539 419.504 474.044 419.504 471.786C419.504 469.528 420.984 467.989 423.131 467.989C425.197 467.99 426.611 469.522 426.618 471.757ZM421.504 471.091H424.679C424.501 470.173 423.946 469.655 423.117 469.655C422.207 469.655 421.674 470.203 421.504 471.091Z" fill="#A5B7C6"/>
<path d="M434.964 471.764C434.964 473.918 433.469 475.539 431.493 475.539C430.531 475.539 429.85 475.161 429.384 474.606V478.314H427.46V468.181H429.347V468.973C429.813 468.388 430.502 467.989 431.486 467.989C433.469 467.99 434.964 469.61 434.964 471.764ZM429.287 471.764C429.287 472.896 430.034 473.74 431.13 473.74C432.27 473.74 432.98 472.859 432.98 471.764C432.98 470.669 432.27 469.788 431.13 469.788C430.035 469.788 429.287 470.632 429.287 471.764Z" fill="#A5B7C6"/>
<path d="M438.069 465.837C438.069 466.533 437.529 467.066 436.833 467.066C436.137 467.066 435.604 466.533 435.604 465.837C435.604 465.141 436.137 464.594 436.833 464.594C437.528 464.593 438.069 465.141 438.069 465.837ZM437.81 475.355H435.878V468.183H437.81V475.355Z" fill="#A5B7C6"/>
<path d="M441.032 470.736L443.733 468.182H446.101L442.622 471.557L446.123 475.354H443.747L441.031 472.453V475.354H439.1V464.696H441.032V470.736Z" fill="#A5B7C6"/>
<path d="M309.412 475.29V474.235C308.885 474.953 308.021 475.465 307.025 475.465C305.179 475.465 303.876 474.059 303.876 471.759C303.876 469.503 305.165 468.038 307.025 468.038C307.977 468.038 308.841 468.507 309.412 469.283V465.518H310.511V475.288H309.412V475.29ZM309.412 473.371V470.163C309.017 469.548 308.167 469.02 307.288 469.02C305.867 469.02 305.018 470.192 305.018 471.759C305.018 473.326 305.868 474.483 307.288 474.483C308.168 474.484 309.017 473.987 309.412 473.371Z" fill="#A5B7C6"/>
<path d="M311.932 471.745C311.932 469.694 313.397 468.039 315.418 468.039C317.557 468.039 318.816 469.709 318.816 471.833V472.112H313.089C313.177 473.445 314.115 474.558 315.638 474.558C316.444 474.558 317.264 474.236 317.82 473.664L318.347 474.382C317.644 475.085 316.692 475.466 315.535 475.466C313.44 475.466 311.932 473.957 311.932 471.745ZM315.404 468.948C313.895 468.948 313.148 470.222 313.089 471.306H317.732C317.718 470.251 317.015 468.948 315.404 468.948Z" fill="#A5B7C6"/>
<path d="M319.607 474.352L320.178 473.561C320.647 474.103 321.54 474.572 322.507 474.572C323.591 474.572 324.177 474.059 324.177 473.356C324.177 471.642 319.797 472.697 319.797 470.075C319.797 468.977 320.749 468.039 322.433 468.039C323.634 468.039 324.484 468.493 325.055 469.065L324.542 469.827C324.118 469.314 323.341 468.933 322.433 468.933C321.466 468.933 320.866 469.416 320.866 470.046C320.866 471.598 325.246 470.573 325.246 473.327C325.246 474.514 324.294 475.465 322.463 475.465C321.306 475.466 320.325 475.114 319.607 474.352Z" fill="#A5B7C6"/>
<path d="M326.477 466.472C326.477 466.062 326.814 465.725 327.209 465.725C327.619 465.725 327.956 466.062 327.956 466.472C327.956 466.882 327.619 467.204 327.209 467.204C326.814 467.204 326.477 466.882 326.477 466.472ZM326.667 475.29V468.215H327.766V475.29H326.667Z" fill="#A5B7C6"/>
<path d="M329.582 477.106L330.138 476.286C330.724 476.989 331.427 477.253 332.438 477.253C333.61 477.253 334.708 476.682 334.708 475.129V474.118C334.195 474.836 333.331 475.378 332.335 475.378C330.49 475.378 329.186 474.001 329.186 471.716C329.186 469.446 330.475 468.039 332.335 468.039C333.287 468.039 334.137 468.508 334.708 469.284V468.215H335.807V475.085C335.807 477.429 334.166 478.161 332.438 478.161C331.237 478.161 330.417 477.927 329.582 477.106ZM334.709 473.254V470.163C334.328 469.548 333.479 469.02 332.6 469.02C331.179 469.02 330.33 470.148 330.33 471.715C330.33 473.268 331.179 474.41 332.6 474.41C333.478 474.411 334.328 473.869 334.709 473.254Z" fill="#A5B7C6"/>
<path d="M342.413 475.289V470.66C342.413 469.415 341.783 469.019 340.831 469.019C339.966 469.019 339.146 469.546 338.736 470.118V475.288H337.637V468.213H338.736V469.238C339.234 468.652 340.201 468.037 341.255 468.037C342.735 468.037 343.511 468.784 343.511 470.322V475.288H342.413V475.289Z" fill="#A5B7C6"/>
<path d="M344.932 471.745C344.932 469.694 346.397 468.039 348.418 468.039C350.556 468.039 351.816 469.709 351.816 471.833V472.112H346.089C346.177 473.445 347.114 474.558 348.638 474.558C349.444 474.558 350.264 474.236 350.821 473.664L351.348 474.382C350.645 475.085 349.693 475.466 348.536 475.466C346.441 475.466 344.932 473.957 344.932 471.745ZM348.404 468.948C346.895 468.948 346.148 470.222 346.09 471.306H350.733C350.718 470.251 350.015 468.948 348.404 468.948Z" fill="#A5B7C6"/>
<path d="M358.35 475.29V474.235C357.823 474.953 356.958 475.465 355.962 475.465C354.116 475.465 352.812 474.059 352.812 471.759C352.812 469.503 354.102 468.038 355.962 468.038C356.914 468.038 357.779 468.507 358.35 469.283V465.518H359.448V475.288H358.35V475.29ZM358.35 473.371V470.163C357.954 469.548 357.105 469.02 356.226 469.02C354.805 469.02 353.956 470.192 353.956 471.759C353.956 473.326 354.805 474.483 356.226 474.483C357.105 474.484 357.954 473.987 358.35 473.371Z" fill="#A5B7C6"/>
<path d="M364.692 475.29V465.52H365.791V469.285C366.363 468.509 367.212 468.04 368.179 468.04C370.024 468.04 371.328 469.505 371.328 471.761C371.328 474.06 370.024 475.467 368.179 475.467C367.183 475.467 366.319 474.954 365.791 474.237V475.292H364.692V475.29ZM367.9 474.484C369.336 474.484 370.186 473.327 370.186 471.76C370.186 470.192 369.336 469.021 367.9 469.021C367.036 469.021 366.172 469.548 365.791 470.164V473.372C366.171 473.987 367.036 474.484 367.9 474.484Z" fill="#A5B7C6"/>
<path d="M372.529 477.062C372.69 477.135 372.954 477.179 373.13 477.179C373.613 477.179 373.936 477.018 374.185 476.432L374.654 475.363L371.695 468.215H372.882L375.24 474.015L377.584 468.215H378.785L375.24 476.725C374.815 477.75 374.097 478.146 373.16 478.16C372.926 478.16 372.559 478.116 372.354 478.057L372.529 477.062Z" fill="#A5B7C6"/>
</g>
<defs>
<clipPath id="clip0_221_832">
<rect width="750" height="500" fill="white"/>
</clipPath>
</defs>
</svg>
